<svg width="671" height="282" viewBox="0 0 671 282" fill="none" xmlns="http://www.w3.org/2000/svg">
<path d="M312.825 32.9273C325.213 23.0451 338.49 20.3483 352.848 28.0371C354.062 26.8895 355.934 25.2284 358.583 25.3347C365.666 25.6188 361.858 34.4448 362.08 34.7555C365.751 39.9055 363.408 40.3607 363.084 46.425C362.782 52.0931 363.652 60.8542 363.521 66.8372C364.021 76.3018 368.73 85.2077 363.937 94.3487C367.795 95.2392 369.105 95.6265 372.132 98.4907C372.406 101.38 371.687 102.846 368.39 102.932C365.543 103.006 361.856 102.288 359.017 101.696C355.604 103.949 353.103 105.589 349.114 106.877C347.822 107.294 343.13 108.182 342.53 108.651C342.784 109.763 343.052 110.873 343.334 111.979C340.933 116.638 336.73 113.578 333.435 111.852C328.39 107.07 321.19 112.216 311.29 101.183C307.648 100.539 306.561 100.335 303.429 98.4219C301.993 94.5053 303.215 92.3521 307.648 92.6457C307.624 89.003 307.558 85.6283 307.796 81.9929C307.964 79.4091 308.955 74.0162 308.781 71.7637C307.932 60.7741 303.54 55.5997 306.084 43.8083C297.68 38.1477 302.537 29.1255 312.825 32.9273Z" fill="#020202"/>
<path d="M308.375 44.3252L308.388 43.8578C304.895 42.0843 301.263 39.6932 303.487 35.199C306.31 29.4964 311.991 35.2368 314.096 34.5335C314.044 33.9648 313.998 33.7154 313.87 33.1586C315.656 31.3817 319.152 29.3963 321.422 28.3189C332.353 23.1299 345.087 23.0849 354.719 30.8285C351.058 31.453 348.19 32.1113 345.853 35.4183C344.246 37.6929 343.644 40.5283 344.19 43.2596C344.72 45.9816 346.306 48.3839 348.599 49.9426C350.728 51.3775 353.342 51.9018 355.859 51.399C358.551 50.8596 360.151 49.6751 362.271 48.0715C362.782 54.6998 362.286 60.0547 362.627 66.2233C363.166 75.9534 368.709 86.9967 361.87 96.4457C357.524 103.071 351.316 105.495 343.748 107.058C342.897 107.23 342.042 107.372 341.181 107.483C340.119 106.204 339.645 105.7 338.981 104.125C335.534 97.0296 329.346 94.6208 321.855 96.8206L321.419 97.2838L321.718 97.6783C323.021 97.6534 323.869 97.2203 325.13 97.082C328.717 96.6895 332.574 97.9627 335.184 100.458C336.165 101.395 337.608 103.356 337.78 104.705C336.057 104.569 333.182 105.204 332.158 106.675L331.698 109.176C327.358 107.756 322.829 108.146 318.483 105.805C304.47 98.2576 309.134 83.6266 309.598 71.0758C309.847 64.3763 304.831 55.0639 306.431 47.6283C306.886 45.5149 306.059 44.9002 308.375 44.3252Z" fill="#9AE6E2"/>
<path d="M331.7 109.178C327.36 107.758 322.831 108.148 318.484 105.807C304.472 98.2596 309.136 83.6286 309.6 71.0778C309.848 64.3783 304.832 55.0658 306.433 47.6303C306.888 45.5169 306.061 44.9022 308.377 44.3271C306.927 55.5829 309.649 59.5906 311.264 69.9359C312.702 79.1459 309.069 89.3675 315.971 97.9771C318.999 101.753 327.48 107.138 332.16 106.677L331.7 109.178Z" fill="#7AC1C1"/>
<path d="M338.977 104.125C343.649 103.702 351.301 102.291 355.472 100.159C357.4 99.1729 359.816 97.0151 361.865 96.4463C357.519 103.071 351.312 105.496 343.744 107.058C342.893 107.231 342.037 107.372 341.177 107.483C340.115 106.205 339.641 105.7 338.977 104.125Z" fill="#7AC1C1"/>
<path d="M325.959 35.7296C329.695 35.0112 333.53 36.3548 336.001 39.2482C338.472 42.1416 339.199 46.1391 337.904 49.7172C336.61 53.2953 333.494 55.9027 329.744 56.5457C324.026 57.5261 318.585 53.7189 317.547 48.0112C316.51 42.3036 320.262 36.8248 325.959 35.7296Z" fill="#020202"/>
<path d="M321.277 39.4514C325.172 35.4756 330.628 35.2901 334.609 39.2719C336.488 41.1307 337.532 43.6736 337.499 46.3168C337.458 48.8094 336.428 51.1835 334.636 52.9167C333.658 53.8657 332.833 54.3662 331.633 54.9754C321.827 58.7895 313.79 46.883 321.277 39.4514Z" fill="#FEFEFE"/>
<path d="M331.633 54.9751C321.827 58.7893 313.79 46.8828 321.277 39.4512C319.978 45.4936 319.451 50.9842 326.408 53.9199C328.069 54.6207 329.851 54.6658 331.633 54.9751Z" fill="#DADADA"/>
<path d="M330.998 43.2055C332.646 42.7891 334.324 43.7628 334.782 45.3997C335.239 47.0366 334.307 48.7393 332.682 49.2368C331.594 49.5698 330.412 49.2869 329.592 48.4978C328.773 47.7087 328.446 46.5375 328.738 45.4382C329.03 44.3388 329.895 43.4841 330.998 43.2055Z" fill="#020202"/>
<path d="M341.875 49.0164C342.179 48.9684 343.4 48.7808 343.787 48.8601C346.7 49.4663 353.793 54.5144 349.194 57.3398C347.495 58.3832 347.849 59.7206 347.473 61.6167C346.559 62.6696 346.955 62.3503 345.563 62.8446C340.671 63.7317 342.673 61.8666 340.878 59.8789C339.921 58.8196 335.764 59.0063 336.572 55.5274C337.13 53.1283 340.089 50.2573 341.875 49.0164Z" fill="#020202"/>
<path d="M341.549 53.4936L341.789 53.5688C344.847 54.4975 348.505 49.3575 349.764 54.9542C348.722 57.1933 345.906 56.5945 343.832 56.8886C343.079 56.9952 341.791 57.69 341.075 58.0573C335.703 58.7581 336.66 51.4832 341.549 53.4936Z" fill="#EFBCB5"/>
<path d="M341.075 58.0569C335.703 58.7576 336.66 51.4827 341.549 53.4932C340.631 54.1762 339.845 54.5853 339.614 55.6866C339.705 56.8157 340.278 57.2339 341.075 58.0569Z" fill="#D2A4A1"/>
<path d="M343.99 57.8906C344.769 59.5536 344.869 61.6419 342.826 62.2289C342.349 61.2127 342.001 60.6255 341.898 59.511C342.571 58.3321 342.564 58.6131 343.99 57.8906Z" fill="#FEFEFE"/>
<path d="M344.922 57.5361C345.748 57.6453 346.002 57.6385 346.705 58.1424C347.224 59.1157 346.785 60.4602 346.563 61.5934C346.131 61.6944 345.934 61.6066 345.507 61.5035C344.91 60.4474 344.977 58.796 344.922 57.5361Z" fill="#FEFEFE"/>
<path d="M330.438 76.8741L330.461 76.0098C332.197 76.2155 338.627 83.7977 338.44 86.9102C335.59 92.2638 326.52 84.2367 326.453 82.035L326.81 81.7867C328.692 80.5357 329.77 78.9978 330.438 76.8741Z" fill="#EFBCB5"/>
<path d="M330.438 76.8741L330.461 76.0098C332.197 76.2155 338.627 83.7977 338.44 86.9102C335.59 92.2638 326.52 84.2367 326.453 82.035L326.81 81.7867C328.257 82.8554 335.848 91.2396 337.5 86.0997C336.968 82.8508 332.518 80.2841 330.438 76.8741Z" fill="#020202"/>
<path d="M362.393 77.1782C362.779 77.4396 362.664 77.3865 362.855 77.9291C362.196 81.3522 357.387 88.1835 353.955 84.8488C352.978 81.8575 356.2 76.1998 357.512 73.2642L357.883 73.2021L358.21 74.2019C359.182 75.7339 360.603 76.7955 362.393 77.1782Z" fill="#EFBCB5"/>
<path d="M362.393 77.1782C362.779 77.4396 362.664 77.3865 362.855 77.9291C362.196 81.3522 357.387 88.1835 353.955 84.8488C352.978 81.8575 356.2 76.1998 357.512 73.2642L357.883 73.2021L358.21 74.2019L358.183 74.3153C357.364 77.6768 353.664 81.6163 354.892 84.1942C358.576 86.6272 361.081 78.5542 362.393 77.1782Z" fill="#020202"/>
<path d="M308.233 35.1963C309.485 35.4191 310.32 35.5473 311.147 36.3717C311.263 37.4451 309.583 39.6865 308.864 40.9175C306.657 41.1268 304.241 37.4213 308.233 35.1963Z" fill="#020202"/>
<path d="M348.068 34.4041C351.023 31.8105 355.299 31.378 358.714 33.3273C362.129 35.2766 363.932 39.1782 363.201 43.0422C362.471 46.9062 359.37 49.8813 355.479 50.4501C351.439 51.0407 347.492 48.9025 345.78 45.1956C344.067 41.4888 344.998 37.0973 348.068 34.4041Z" fill="#FEFEFE"/>
<path d="M355.479 50.4502C351.439 51.0409 347.492 48.9026 345.78 45.1958C344.067 41.489 344.998 37.0975 348.068 34.4043C346.823 39.2338 345.245 43.0457 349.722 47.0245C351.893 48.9533 353.155 49.0695 355.479 50.4502Z" fill="#DADADA"/>
<path d="M355.129 38.7406C356.801 38.3703 358.463 39.3953 358.883 41.0547C359.303 42.7141 358.328 44.4067 356.682 44.8758C355.573 45.1919 354.379 44.8796 353.567 44.0607C352.754 43.2419 352.452 42.0459 352.777 40.9392C353.102 39.8325 354.003 38.9902 355.129 38.7406Z" fill="#020202"/>
<path d="M332.155 106.676C333.179 105.205 336.054 104.57 337.777 104.707C338.764 106.834 344.062 111.173 340.984 113.133C337.916 113.459 334.207 110.805 331.695 109.178L332.155 106.676Z" fill="#EFBCB5"/>
<path d="M363.942 95.4541C366.823 96.0786 370.815 96.8262 371.243 100.318L371.268 100.506C371.279 100.62 371.289 100.734 371.3 100.848C369.39 102.023 361.466 102.078 360.477 100.341L361.415 99.1747C362.243 98.0201 363.265 96.6782 363.942 95.4541Z" fill="#EFBCB5"/>
<path d="M361.415 99.1748C363.715 99.739 369.869 100.301 371.3 100.848C369.39 102.023 361.466 102.078 360.477 100.341L361.415 99.1748Z" fill="#D2A4A1"/>
<path d="M356.877 26.3703C362.111 25.8563 363.691 31.4261 360.902 33.3893L359.693 33.0092C359.725 31.3414 359.798 30.9114 358.808 29.7114C357.112 29.0105 356.026 29.024 354.196 28.9221L354.141 28.5579C355.019 27.4973 355.738 27.1046 356.877 26.3703Z" fill="#D3B1CD"/>
<path d="M305.135 93.5566L307.016 93.6759C308.499 94.3659 310.148 98.1311 309.957 99.6566L309.198 99.7582C306.662 99.2156 303.955 98.3768 303.633 95.5015C303.941 94.4255 304.241 94.2611 305.135 93.5566Z" fill="#7AC1C1"/>
<path d="M272.513 252.622C263.234 247.939 255.898 233.989 255.365 224.053C254.807 213.652 254.929 202.453 254.926 192.036L254.898 139.593C255.106 116.139 269.807 98.0413 294.649 98.3146C297.546 98.3467 300.525 98.388 303.429 98.4207C306.561 100.333 307.649 100.538 311.291 101.182C321.19 112.215 328.391 107.068 333.435 111.851L315.518 111.923C302.036 112.008 290.497 111.985 280.257 122.319C276.202 126.454 273.249 131.54 271.666 137.111C269.304 145.513 269.64 159.493 269.622 168.535L269.633 195.076C269.744 209.616 269.47 222.923 280.767 233.693C281.336 234.237 284.842 237.242 284.995 237.584C286.095 239.481 288.219 239.362 287.99 241.114C283.223 245.074 282.725 247.34 278.562 251.406C279.324 252.643 279.583 252.591 279.493 253.771C277.925 254.519 274.703 252.988 273.359 252.026C272.728 252.255 272.954 252.117 272.513 252.622Z" fill="url(#paint0_linear_761_4049)"/>
<path d="M372.133 98.4908C376.934 98.5 382.276 98.3296 386.963 99.4364C393.775 101.045 403.492 106.291 407.234 112.476C407.017 114.691 408.276 113.755 408.343 115.378L407.882 115.581L406.757 115.046C404.728 115.82 398.615 126.099 393.366 124.056C392.159 123.586 391.607 121.093 389.599 121.106C376.076 110.424 359.937 110.998 343.336 111.98C343.054 110.874 342.785 109.764 342.531 108.651C343.131 108.182 347.824 107.294 349.115 106.877C353.105 105.589 355.606 103.949 359.019 101.696C361.857 102.288 365.544 103.006 368.392 102.932C371.688 102.846 372.407 101.38 372.133 98.4908Z" fill="#D82C60"/>
<path d="M407.237 112.476C411.421 116.289 415.52 127.538 415.546 133.094C415.596 143.383 416.425 155.503 415.719 165.667C414.533 162.172 416.562 152.985 414.694 149.832L414.164 149.577C413 150.107 402.438 159.06 401.938 160.565C401.221 162.72 402.342 168.855 401.329 171.568C399.711 151.251 405.465 138.268 389.602 121.106C391.61 121.093 392.162 123.586 393.369 124.056C398.618 126.099 404.731 115.82 406.759 115.046L407.884 115.581L408.346 115.378C408.278 113.755 407.019 114.691 407.237 112.476Z" fill="url(#paint1_linear_761_4049)"/>
<path d="M285.006 237.585C287.415 238.819 291.745 241.386 294.216 242.124C305.262 245.425 318.56 244.189 330.095 244.552C332.522 244.628 335.838 244.41 338.004 244.617C336.977 245.317 324.008 244.842 321.534 244.946C317.797 247.528 313.43 257.036 311.11 258.272C314.248 258.413 326.922 258.069 328.792 258.617C319.271 259.061 309.32 258.417 299.755 258.704C291.14 258.963 279.613 258.123 272.523 252.623C272.965 252.118 272.739 252.256 273.369 252.027C274.714 252.989 277.935 254.52 279.503 253.772C279.594 252.592 279.334 252.644 278.573 251.407C282.735 247.341 283.233 245.075 288.001 241.115C288.23 239.363 286.106 239.483 285.006 237.585Z" fill="url(#paint2_linear_761_4049)"/>
<path d="M358.833 122.01C378.245 121.162 390.698 129.702 390.87 150.38C390.875 150.83 390.863 151.28 390.834 151.728C391.477 158.54 391.16 172.782 391.142 179.942C391.12 188.167 391.491 206.134 390.09 213.708C387.495 223.419 382.116 230.228 372.084 232.893C370.162 233.55 367.299 233.911 365.284 234.003C351.899 234.609 338.212 234.345 324.811 234.395C321.692 234.407 306.432 234.358 303.949 233.786C293.81 234.025 283.118 224.614 281.149 214.825C279.467 206.461 279.79 198.036 279.764 189.545C279.684 181.387 279.702 173.228 279.816 165.07C279.338 153.456 278.941 137.661 287.761 129.162C296.378 120.858 308.552 121.932 319.578 122.077C328.826 122 338.074 121.975 347.322 122.001C351.006 122.001 355.241 122.168 358.833 122.01ZM367.854 168.22C363.444 152.185 347.924 141.824 331.424 143.897C314.924 145.971 302.452 159.851 302.148 176.478C301.843 193.105 313.797 207.432 330.211 210.109C341.457 211.943 352.864 207.927 360.48 199.452C368.096 190.977 370.874 179.207 367.854 168.22ZM333.168 154.936C345.447 153.6 356.464 162.523 357.708 174.811C358.952 187.1 349.946 198.049 337.648 199.201C325.481 200.339 314.672 191.449 313.442 179.292C312.211 167.133 321.019 156.258 333.168 154.936Z" fill="url(#paint3_linear_761_4049)"/>
<path d="M401.331 171.568C402.344 168.854 401.223 162.72 401.94 160.564C402.44 159.06 413.002 150.107 414.166 149.576L414.696 149.832C416.564 152.985 414.534 162.171 415.721 165.667C416.125 181.451 415.624 197.384 415.838 213.182C415.923 219.444 415.954 224.992 414.367 231.156C412.749 237.233 409.604 242.796 405.23 247.316C398.47 254.419 388.092 258.708 378.316 258.704C363.289 258.699 348.259 258.621 333.231 258.691C331.887 258.698 330.089 258.739 328.787 258.617C326.917 258.069 314.243 258.413 311.105 258.272C313.425 257.036 317.792 247.528 321.529 244.945C324.003 244.842 336.972 245.317 337.999 244.616C355.802 243.752 375.102 247.691 389.31 234.662C393.623 230.757 396.875 225.821 398.761 220.317C402.629 208.826 400.788 184.706 401.331 171.568Z" fill="url(#paint4_linear_761_4049)"/>
<path d="M390.365 168.329C390.374 164.976 390.013 154.277 390.83 151.728C391.473 158.54 391.156 172.782 391.137 179.942C391.116 188.167 391.487 206.134 390.086 213.708C387.491 223.419 382.112 230.228 372.079 232.893C370.157 233.55 367.295 233.911 365.28 234.003C351.895 234.609 338.208 234.344 324.807 234.395C321.689 234.407 306.428 234.359 303.945 233.786C306.772 233.318 321.857 233.781 326.126 233.661C328.738 231.166 329.342 229.842 331.441 227.253C334.176 223.868 337.379 220.893 340.956 218.415C341.01 218.266 341.065 218.118 341.12 217.969L341.215 217.742C342.075 215.622 343.977 214.212 345.167 212.25C345.735 211.312 345.644 210.234 346.407 209.608C343.935 210.008 341.303 211.059 338.885 210.97C336.816 210.894 331.804 211.296 330.198 210.107C341.444 211.941 352.85 207.925 360.467 199.45C368.083 190.974 370.861 179.205 367.84 168.218C369.775 170.141 369.893 177.355 369.775 180.066C369.726 181.177 369.265 181.761 369.317 183.31L369.803 183.694C373.463 183.444 383.973 172.487 387.107 169.645C387.404 169.377 389.835 168.516 390.365 168.329Z" fill="url(#paint5_linear_761_4049)"/>
<path d="M372.079 232.893C372.091 232.822 372.102 232.751 372.113 232.681C375.027 226.155 384.562 217.101 390.086 213.708C387.491 223.419 382.112 230.228 372.079 232.893Z" fill="url(#paint6_linear_761_4049)"/>
<path d="M279.808 165.07C279.33 153.456 278.934 137.662 287.754 129.162C296.371 120.859 308.544 121.933 319.57 122.077C316.492 123.052 310.903 121.863 309.265 124.016C308.724 124.726 308.476 126.814 307.335 127.43C298.239 136.175 289.975 145.673 280.88 154.387C280.122 155.114 280.681 163.018 279.808 165.07Z" fill="#E28F4D"/>
<path d="M78.7351 217.003C90.7829 216.35 95.2178 218.479 101.731 228.563C99.1737 229.512 92.3988 231.396 89.7784 232.006C89.1264 231.312 88.4213 230.67 87.6691 230.087C79.1846 223.403 68.4204 231.236 68.3503 240.831C68.3391 242.374 68.5711 243.987 68.7598 245.52C74.9876 253.413 83.9032 253.654 88.8138 244.475C84.4379 244.384 80.0875 244.447 75.6762 244.323C76.6067 241.219 77.9153 238.242 79.5725 235.458C85.6312 235.15 94.1156 235.41 100.326 235.449C106.508 219.25 124.524 211.946 139.519 221.163C145.646 226.539 147.107 229.672 147.015 238.059C146.799 257.943 123.349 268.337 107.503 258.091C104.068 255.87 102.025 251.395 99.7766 247.96C99.0027 249.186 98.1934 250.477 97.3599 251.66C93.5436 257.072 87.7103 260.721 81.1747 261.786C75.386 262.76 68.7605 261.814 63.9586 258.362C50.9082 248.979 55.4663 228.52 67.965 220.876C71.6358 218.631 74.481 217.656 78.7351 217.003ZM123.912 251.567C140.841 247.751 138.031 225.119 123.665 227.803C104.801 231.797 110.187 253.13 123.912 251.567Z" fill="#0F9CAF"/>
<path d="M45.8822 233.779C47.5486 233.733 50.9337 233.255 51.9199 234.572L51.6434 235.369C50.0557 236.311 32.0927 235.925 28.8451 235.91C26.707 235.922 24.5446 235.965 22.4136 235.804L22.2812 235.387L22.9254 234.494C25.344 233.463 42.0659 233.785 45.8822 233.779Z" fill="#0F9CAF"/>
<path d="M32.5066 228.097C36.2613 227.9 51.1878 227.784 54.6267 228.109L54.8377 228.519L54.3147 229.977C48.9998 230.004 36.7659 230.386 31.9955 229.898L31.7891 229.444L32.5066 228.097Z" fill="#0F9CAF"/>
<path d="M46.7028 239.678C47.8358 239.639 49.7728 239.424 50.6214 240.047C50.6836 241.123 50.8062 240.76 50.2852 241.524C48.592 241.882 43.1781 241.693 41.0432 241.689C39.9345 241.702 38.0689 241.903 37.2734 241.252L37.2938 240.593C38.9385 239.202 44.2324 239.669 46.7028 239.678Z" fill="#0F9CAF"/>
<defs>
<linearGradient id="paint0_linear_761_4049" x1="248.742" y1="126.448" x2="326.783" y2="209.004" gradientUnits="userSpaceOnUse">
<stop stop-color="#EBBF47"/>
<stop offset="1" stop-color="#CF0F6F"/>
</linearGradient>
<linearGradient id="paint1_linear_761_4049" x1="394.598" y1="123.162" x2="414.62" y2="149.949" gradientUnits="userSpaceOnUse">
<stop stop-color="#DA1E6C"/>
<stop offset="1" stop-color="#8D348B"/>
</linearGradient>
<linearGradient id="paint2_linear_761_4049" x1="286.751" y1="240.182" x2="310.422" y2="259.19" gradientUnits="userSpaceOnUse">
<stop stop-color="#D31F73"/>
<stop offset="1" stop-color="#8C338E"/>
</linearGradient>
<linearGradient id="paint3_linear_761_4049" x1="294.706" y1="138.381" x2="359.062" y2="200.713" gradientUnits="userSpaceOnUse">
<stop stop-color="#EC644C"/>
<stop offset="1" stop-color="#B60E80"/>
</linearGradient>
<linearGradient id="paint4_linear_761_4049" x1="347.931" y1="194.445" x2="486.193" y2="264.887" gradientUnits="userSpaceOnUse">
<stop stop-color="#9A3086"/>
<stop offset="0.9999" stop-color="#B8117F"/>
</linearGradient>
<linearGradient id="paint5_linear_761_4049" x1="347.931" y1="194.445" x2="486.193" y2="264.887" gradientUnits="userSpaceOnUse">
<stop stop-color="#9A3086"/>
<stop offset="0.9999" stop-color="#B8117F"/>
</linearGradient>
<linearGradient id="paint6_linear_761_4049" x1="347.931" y1="194.445" x2="486.193" y2="264.887" gradientUnits="userSpaceOnUse">
<stop stop-color="#9A3086"/>
<stop offset="0.9999" stop-color="#B8117F"/>
</linearGradient>
</defs>
</svg>
